<?xml version="1.0" encoding="utf-8"?>
<!-- Generator: Adobe Illustrator 25.0.0, SVG Export Plug-In . SVG Version: 6.00 Build 0)  -->
<svg version="1.1" id="图层_1" xmlns="http://www.w3.org/2000/svg" xmlns:xlink="http://www.w3.org/1999/xlink" x="0px" y="0px"
	 viewBox="0 0 595.32 841.92" style="enable-background:new 0 0 595.32 841.92;" xml:space="preserve">
<style type="text/css">
	.st0{clip-path:url(#SVGID_2_);}
	.st1{font-family:'SimHei';}
	.st2{font-size:26.04px;}
	.st3{fill:none;stroke:#000000;stroke-width:0.744;stroke-miterlimit:10;}
	.st4{clip-path:url(#SVGID_6_);}
	.st5{clip-path:url(#SVGID_10_);}
	.st6{font-size:15.96px;}
	.st7{fill:none;stroke:#000000;stroke-width:0.456;stroke-miterlimit:10;}
	.st8{clip-path:url(#SVGID_14_);}
	.st9{fill:#333333;}
	.st10{font-family:'DengXian';}
	.st11{font-size:15px;}
	.st12{clip-path:url(#SVGID_16_);}
	.st13{clip-path:url(#SVGID_18_);}
	.st14{clip-path:url(#SVGID_22_);}
	.st15{clip-path:url(#SVGID_24_);}
	.st16{clip-path:url(#SVGID_26_);}
	.st17{clip-path:url(#SVGID_28_);}
	.st18{clip-path:url(#SVGID_32_);}
	.st19{fill:#104A00;}
	.st20{font-family:'DengXian-Bold';}
	.st21{clip-path:url(#SVGID_34_);}
	.st22{clip-path:url(#SVGID_36_);}
	.st23{clip-path:url(#SVGID_40_);}
	.st24{clip-path:url(#SVGID_42_);}
	.st25{clip-path:url(#SVGID_44_);}
	.st26{clip-path:url(#SVGID_46_);}
	.st27{clip-path:url(#SVGID_48_);}
	.st28{clip-path:url(#SVGID_50_);}
	.st29{clip-path:url(#SVGID_52_);}
	.st30{clip-path:url(#SVGID_54_);}
	.st31{clip-path:url(#SVGID_58_);}
	.st32{clip-path:url(#SVGID_60_);}
	.st33{clip-path:url(#SVGID_62_);}
	.st34{clip-path:url(#SVGID_64_);}
	.st35{clip-path:url(#SVGID_66_);}
	.st36{clip-path:url(#SVGID_68_);}
	.st37{clip-path:url(#SVGID_70_);}
	.st38{clip-path:url(#SVGID_72_);}
	.st39{clip-path:url(#SVGID_74_);}
	.st40{clip-path:url(#SVGID_76_);}
	.st41{clip-path:url(#SVGID_78_);}
	.st42{clip-path:url(#SVGID_80_);}
	.st43{clip-path:url(#SVGID_82_);}
	.st44{clip-path:url(#SVGID_86_);}
	.st45{clip-path:url(#SVGID_88_);fill:#104A00;}
	.st46{clip-path:url(#SVGID_90_);}
	.st47{clip-path:url(#SVGID_92_);}
	.st48{clip-path:url(#SVGID_94_);fill:#104A00;}
	.st49{clip-path:url(#SVGID_96_);}
	.st50{clip-path:url(#SVGID_98_);}
	.st51{clip-path:url(#SVGID_100_);}
	.st52{clip-path:url(#SVGID_102_);}
	.st53{clip-path:url(#SVGID_104_);fill:#104A00;}
	.st54{clip-path:url(#SVGID_106_);}
	.st55{clip-path:url(#SVGID_108_);fill:#104A00;}
	.st56{clip-path:url(#SVGID_110_);}
	.st57{clip-path:url(#SVGID_116_);}
	.st58{fill:none;stroke:#000000;stroke-width:0.4286;stroke-miterlimit:10;}
	.st59{clip-path:url(#SVGID_120_);}
	.st60{clip-path:url(#SVGID_124_);}
	.st61{clip-path:url(#SVGID_128_);}
</style>
<g>
	<defs>
		<rect id="SVGID_1_" x="0" width="595.32" height="841.92"/>
	</defs>
	<clipPath id="SVGID_2_">
		<use xlink:href="#SVGID_1_"  style="overflow:visible;"/>
	</clipPath>
	<g class="st0">
		<text transform="matrix(1 0 0 1 196.25 75.1202)" class="st1 st2">一</text>
	</g>
	<g class="st0">
		<text transform="matrix(1 0 0 1 196.25 75.1202)" class="st3 st1 st2">一</text>
	</g>
	<g class="st0">
		<text transform="matrix(1 0 0 1 222.394 75.1202)" class="st1 st2">五</text>
	</g>
	<g class="st0">
		<text transform="matrix(1 0 0 1 222.394 75.1202)" class="st3 st1 st2">五</text>
	</g>
	<g class="st0">
		<text transform="matrix(1 0 0 1 248.5381 75.1202)" class="st1 st2">电</text>
	</g>
	<g class="st0">
		<text transform="matrix(1 0 0 1 248.5381 75.1202)" class="st3 st1 st2">电</text>
	</g>
	<g class="st0">
		<text transform="matrix(1 0 0 1 274.5781 75.1202)" class="st1 st2">视</text>
	</g>
	<g class="st0">
		<text transform="matrix(1 0 0 1 274.5781 75.1202)" class="st3 st1 st2">视</text>
	</g>
	<g class="st0">
		<text transform="matrix(1 0 0 1 300.6182 75.1202)" class="st1 st2">台</text>
	</g>
	<g class="st0">
		<text transform="matrix(1 0 0 1 300.6182 75.1202)" class="st3 st1 st2">台</text>
	</g>
</g>
<g>
	<defs>
		<rect id="SVGID_3_" x="0" width="595.32" height="841.92"/>
	</defs>
	<clipPath id="SVGID_4_">
		<use xlink:href="#SVGID_3_"  style="overflow:visible;"/>
	</clipPath>
</g>
<g>
	<defs>
		<rect id="SVGID_5_" x="0" width="595.32" height="841.92"/>
	</defs>
	<clipPath id="SVGID_6_">
		<use xlink:href="#SVGID_5_"  style="overflow:visible;"/>
	</clipPath>
	<g class="st4">
		<text transform="matrix(1 0 0 1 339.79 75.1202)" class="st1 st2">公</text>
	</g>
	<g class="st4">
		<text transform="matrix(1 0 0 1 339.79 75.1202)" class="st3 st1 st2">公</text>
	</g>
	<g class="st4">
		<text transform="matrix(1 0 0 1 365.9502 75.1202)" class="st1 st2">告</text>
	</g>
	<g class="st4">
		<text transform="matrix(1 0 0 1 365.9502 75.1202)" class="st3 st1 st2">告</text>
	</g>
</g>
<g>
	<defs>
		<rect id="SVGID_7_" x="0" width="595.32" height="841.92"/>
	</defs>
	<clipPath id="SVGID_8_">
		<use xlink:href="#SVGID_7_"  style="overflow:visible;"/>
	</clipPath>
</g>
<g>
	<defs>
		<rect id="SVGID_9_" x="0" width="595.32" height="841.92"/>
	</defs>
	<clipPath id="SVGID_10_">
		<use xlink:href="#SVGID_9_"  style="overflow:visible;"/>
	</clipPath>
	<g class="st5">
		<text transform="matrix(1 0 0 1 35.3999 123.6202)" class="st1 st6">致</text>
	</g>
	<g class="st5">
		<text transform="matrix(1 0 0 1 35.3999 123.6202)" class="st7 st1 st6">致</text>
	</g>
	<g class="st5">
		<text transform="matrix(1 0 0 1 51.4717 123.6202)" class="st1 st6">广</text>
	</g>
	<g class="st5">
		<text transform="matrix(1 0 0 1 51.4717 123.6202)" class="st7 st1 st6">广</text>
	</g>
	<g class="st5">
		<text transform="matrix(1 0 0 1 67.5435 123.6202)" class="st1 st6">大</text>
	</g>
	<g class="st5">
		<text transform="matrix(1 0 0 1 67.5435 123.6202)" class="st7 st1 st6">大</text>
	</g>
	<g class="st5">
		<text transform="matrix(1 0 0 1 83.6152 123.6202)" class="st1 st6">热</text>
	</g>
	<g class="st5">
		<text transform="matrix(1 0 0 1 83.6152 123.6202)" class="st7 st1 st6">热</text>
	</g>
	<g class="st5">
		<text transform="matrix(1 0 0 1 99.687 123.6202)" class="st1 st6">爱</text>
	</g>
	<g class="st5">
		<text transform="matrix(1 0 0 1 99.687 123.6202)" class="st7 st1 st6">爱</text>
	</g>
	<g class="st5">
		<text transform="matrix(1 0 0 1 115.7588 123.6202)" class="st1 st6">艺</text>
	</g>
	<g class="st5">
		<text transform="matrix(1 0 0 1 115.7588 123.6202)" class="st7 st1 st6">艺</text>
	</g>
	<g class="st5">
		<text transform="matrix(1 0 0 1 131.8306 123.6202)" class="st1 st6">术</text>
	</g>
	<g class="st5">
		<text transform="matrix(1 0 0 1 131.8306 123.6202)" class="st7 st1 st6">术</text>
	</g>
	<g class="st5">
		<text transform="matrix(1 0 0 1 147.7905 123.6202)" class="st1 st6">的</text>
	</g>
	<g class="st5">
		<text transform="matrix(1 0 0 1 147.7905 123.6202)" class="st7 st1 st6">的</text>
	</g>
	<g class="st5">
		<text transform="matrix(1 0 0 1 163.8623 123.6202)" class="st1 st6">同</text>
	</g>
	<g class="st5">
		<text transform="matrix(1 0 0 1 163.8623 123.6202)" class="st7 st1 st6">同</text>
	</g>
	<g class="st5">
		<text transform="matrix(1 0 0 1 179.9341 123.6202)" class="st1 st6">学</text>
	</g>
	<g class="st5">
		<text transform="matrix(1 0 0 1 179.9341 123.6202)" class="st7 st1 st6">学</text>
	</g>
	<g class="st5">
		<text transform="matrix(1 0 0 1 196.0059 123.6202)" class="st1 st6">们</text>
	</g>
	<g class="st5">
		<text transform="matrix(1 0 0 1 196.0059 123.6202)" class="st7 st1 st6">们</text>
	</g>
	<g class="st5">
		<text transform="matrix(1 0 0 1 212.0776 123.6202)" class="st1 st6">：</text>
	</g>
	<g class="st5">
		<text transform="matrix(1 0 0 1 212.0776 123.6202)" class="st7 st1 st6">：</text>
	</g>
</g>
<g>
	<defs>
		<rect id="SVGID_11_" x="0" width="595.32" height="841.92"/>
	</defs>
	<clipPath id="SVGID_12_">
		<use xlink:href="#SVGID_11_"  style="overflow:visible;"/>
	</clipPath>
</g>
<g>
	<defs>
		<rect id="SVGID_13_" x="0" width="595.32" height="841.92"/>
	</defs>
	<clipPath id="SVGID_14_">
		<use xlink:href="#SVGID_13_"  style="overflow:visible;"/>
	</clipPath>
	<g class="st8">
		<text transform="matrix(1 0 0 1 59.4238 166.3399)" class="st9 st10 st11">今年十二月二十九日，我们将欣然迎来一年一度的科学艺术节。枫叶飘</text>
	</g>
</g>
<g>
	<defs>
		<rect id="SVGID_15_" x="0" width="595.32" height="841.92"/>
	</defs>
	<clipPath id="SVGID_16_">
		<use xlink:href="#SVGID_15_"  style="overflow:visible;"/>
	</clipPath>
	<g class="st12">
		<text transform="matrix(1 0 0 1 35.3999 197.5401)" class="st9 st10 st11">落、回忆往昔，那种勃勃生机、万物竞发的境界犹在眼前。我们诚挚的祝愿大</text>
	</g>
</g>
<g>
	<defs>
		<rect id="SVGID_17_" x="0" width="595.32" height="841.92"/>
	</defs>
	<clipPath id="SVGID_18_">
		<use xlink:href="#SVGID_17_"  style="overflow:visible;"/>
	</clipPath>
	<g class="st13">
		<text transform="matrix(1 0 0 1 35.3999 228.7398)" class="st9 st10 st11">家能愉快的度过这夹在悲惨的月考和期末考（或市质检）之间的一天。</text>
	</g>
</g>
<g>
	<defs>
		<rect id="SVGID_19_" x="0" width="595.32" height="841.92"/>
	</defs>
	<clipPath id="SVGID_20_">
		<use xlink:href="#SVGID_19_"  style="overflow:visible;"/>
	</clipPath>
</g>
<g>
	<defs>
		<rect id="SVGID_21_" x="0" width="595.32" height="841.92"/>
	</defs>
	<clipPath id="SVGID_22_">
		<use xlink:href="#SVGID_21_"  style="overflow:visible;"/>
	</clipPath>
	<g class="st14">
		<text transform="matrix(1 0 0 1 59.4238 262.9698)" class="st9 st10 st11">应此，一五电视台欣然</text>
	</g>
</g>
<g>
	<defs>
		<rect id="SVGID_23_" x="0" width="595.32" height="841.92"/>
	</defs>
	<clipPath id="SVGID_24_">
		<use xlink:href="#SVGID_23_"  style="overflow:visible;"/>
	</clipPath>
	<g class="st15">
		<text transform="matrix(1 0 0 1 209.4502 262.9698)" class="st9 st10 st11">决定将于当日开展摄影艺术展览活动。独乐乐不如</text>
	</g>
</g>
<g>
	<defs>
		<rect id="SVGID_25_" x="0" width="595.32" height="841.92"/>
	</defs>
	<clipPath id="SVGID_26_">
		<use xlink:href="#SVGID_25_"  style="overflow:visible;"/>
	</clipPath>
	<g class="st16">
		<text transform="matrix(1 0 0 1 35.3999 294.17)" class="st9 st10 st11">众乐乐，集中力量办大事，我们谨邀热爱艺术、热爱生活的各位同学随一份，</text>
	</g>
</g>
<g>
	<defs>
		<rect id="SVGID_27_" x="0" width="595.32" height="841.92"/>
	</defs>
	<clipPath id="SVGID_28_">
		<use xlink:href="#SVGID_27_"  style="overflow:visible;"/>
	</clipPath>
	<g class="st17">
		<text transform="matrix(1 0 0 1 35.3999 325.3702)" class="st9 st10 st11">为本次的展览出一份优质的稿件。</text>
	</g>
</g>
<g>
	<defs>
		<rect id="SVGID_29_" x="0" width="595.32" height="841.92"/>
	</defs>
	<clipPath id="SVGID_30_">
		<use xlink:href="#SVGID_29_"  style="overflow:visible;"/>
	</clipPath>
</g>
<g>
	<defs>
		<rect id="SVGID_31_" x="0" width="595.32" height="841.92"/>
	</defs>
	<clipPath id="SVGID_32_">
		<use xlink:href="#SVGID_31_"  style="overflow:visible;"/>
	</clipPath>
	<g class="st18">
		<text transform="matrix(1 0 0 1 59.4238 359.5699)" class="st19 st20 st11">本次投稿范围为：全校高中部与初中部各年级；投稿可选择：署名、匿名</text>
	</g>
</g>
<g>
	<defs>
		<rect id="SVGID_33_" x="0" width="595.32" height="841.92"/>
	</defs>
	<clipPath id="SVGID_34_">
		<use xlink:href="#SVGID_33_"  style="overflow:visible;"/>
	</clipPath>
	<g class="st21">
		<text transform="matrix(1 0 0 1 35.3999 390.7701)" class="st19 st20 st11">或署化名；对于投稿的照片主题，不作严格限制，艺术和趣味方向均可；被入</text>
	</g>
</g>
<g>
	<defs>
		<rect id="SVGID_35_" x="0" width="595.32" height="841.92"/>
	</defs>
	<clipPath id="SVGID_36_">
		<use xlink:href="#SVGID_35_"  style="overflow:visible;"/>
	</clipPath>
	<g class="st22">
		<text transform="matrix(1 0 0 1 35.3999 421.9698)" class="st19 st20 st11">选的片，均会以实体的形式展示；展览结束后，照片会赠与投稿人。</text>
	</g>
</g>
<g>
	<defs>
		<rect id="SVGID_37_" x="0" width="595.32" height="841.92"/>
	</defs>
	<clipPath id="SVGID_38_">
		<use xlink:href="#SVGID_37_"  style="overflow:visible;"/>
	</clipPath>
</g>
<g>
	<defs>
		<rect id="SVGID_39_" x="0" width="595.32" height="841.92"/>
	</defs>
	<clipPath id="SVGID_40_">
		<use xlink:href="#SVGID_39_"  style="overflow:visible;"/>
	</clipPath>
	<g class="st23">
		<text transform="matrix(1 0 0 1 59.4238 456.1895)" class="st9 st10 st11">摄影是凝固的瞬间、是生活的感动、是历史的厚重；我们怀着喜悦，期待</text>
	</g>
</g>
<g>
	<defs>
		<rect id="SVGID_41_" x="0" width="595.32" height="841.92"/>
	</defs>
	<clipPath id="SVGID_42_">
		<use xlink:href="#SVGID_41_"  style="overflow:visible;"/>
	</clipPath>
	<g class="st24">
		<text transform="matrix(1 0 0 1 35.3999 487.3897)" class="st9 st10 st11">能够收到各位的来稿，将那已从时间的江河中逝去的，轻轻捞出；细细的贴</text>
	</g>
</g>
<g>
	<defs>
		<rect id="SVGID_43_" x="0" width="595.32" height="841.92"/>
	</defs>
	<clipPath id="SVGID_44_">
		<use xlink:href="#SVGID_43_"  style="overflow:visible;"/>
	</clipPath>
	<g class="st25">
		<text transform="matrix(1 0 0 1 530.5 487.3897)" class="st9 st10 st11">裱</text>
	</g>
</g>
<g>
	<defs>
		<rect id="SVGID_45_" x="0" width="595.32" height="841.92"/>
	</defs>
	<clipPath id="SVGID_46_">
		<use xlink:href="#SVGID_45_"  style="overflow:visible;"/>
	</clipPath>
	<g class="st26">
		<text transform="matrix(1 0 0 1 35.3999 518.5899)" class="st9 st10 st11">在，我们心中所期待着的冬日暖阳下；思绪回</text>
	</g>
</g>
<g>
	<defs>
		<rect id="SVGID_47_" x="0" width="595.32" height="841.92"/>
	</defs>
	<clipPath id="SVGID_48_">
		<use xlink:href="#SVGID_47_"  style="overflow:visible;"/>
	</clipPath>
	<g class="st27">
		<text transform="matrix(1 0 0 1 335.4697 518.5899)" class="st9 st10 st11">溯</text>
	</g>
</g>
<g>
	<defs>
		<rect id="SVGID_49_" x="0" width="595.32" height="841.92"/>
	</defs>
	<clipPath id="SVGID_50_">
		<use xlink:href="#SVGID_49_"  style="overflow:visible;"/>
	</clipPath>
	<g class="st28">
		<text transform="matrix(1 0 0 1 350.4697 518.5899)" class="st9 st10 st11">，直</text>
	</g>
</g>
<g>
	<defs>
		<rect id="SVGID_51_" x="0" width="595.32" height="841.92"/>
	</defs>
	<clipPath id="SVGID_52_">
		<use xlink:href="#SVGID_51_"  style="overflow:visible;"/>
	</clipPath>
	<g class="st29">
		<text transform="matrix(1 0 0 1 380.4697 518.5899)" class="st9 st10 st11">那</text>
	</g>
</g>
<g>
	<defs>
		<rect id="SVGID_53_" x="0" width="595.32" height="841.92"/>
	</defs>
	<clipPath id="SVGID_54_">
		<use xlink:href="#SVGID_53_"  style="overflow:visible;"/>
	</clipPath>
	<g class="st30">
		<text transform="matrix(1 0 0 1 395.4697 518.5899)" class="st9 st10 st11">抵现实抑或幻想当中。</text>
	</g>
</g>
<g>
	<defs>
		<rect id="SVGID_55_" x="0" width="595.32" height="841.92"/>
	</defs>
	<clipPath id="SVGID_56_">
		<use xlink:href="#SVGID_55_"  style="overflow:visible;"/>
	</clipPath>
</g>
<g>
	<defs>
		<rect id="SVGID_57_" x="0" width="595.32" height="841.92"/>
	</defs>
	<clipPath id="SVGID_58_">
		<use xlink:href="#SVGID_57_"  style="overflow:visible;"/>
	</clipPath>
	<g class="st31">
		<text transform="matrix(1 0 0 1 59.4238 552.7901)" class="st9 st10 st11">炽热的</text>
	</g>
</g>
<g>
	<defs>
		<rect id="SVGID_59_" x="0" width="595.32" height="841.92"/>
	</defs>
	<clipPath id="SVGID_60_">
		<use xlink:href="#SVGID_59_"  style="overflow:visible;"/>
	</clipPath>
	<g class="st32">
		<text transform="matrix(1 0 0 1 104.4199 552.7901)" class="st9 st10 st11">阳光</text>
	</g>
</g>
<g>
	<defs>
		<rect id="SVGID_61_" x="0" width="595.32" height="841.92"/>
	</defs>
	<clipPath id="SVGID_62_">
		<use xlink:href="#SVGID_61_"  style="overflow:visible;"/>
	</clipPath>
	<g class="st33">
		<text transform="matrix(1 0 0 1 134.4199 552.7901)" class="st9 st10 st11">灼蚀</text>
	</g>
</g>
<g>
	<defs>
		<rect id="SVGID_63_" x="0" width="595.32" height="841.92"/>
	</defs>
	<clipPath id="SVGID_64_">
		<use xlink:href="#SVGID_63_"  style="overflow:visible;"/>
	</clipPath>
	<g class="st34">
		<text transform="matrix(1 0 0 1 164.4199 552.7901)" class="st9 st10 st11">胶片，冲不掉的是银盐</text>
	</g>
</g>
<g>
	<defs>
		<rect id="SVGID_65_" x="0" width="595.32" height="841.92"/>
	</defs>
	<clipPath id="SVGID_66_">
		<use xlink:href="#SVGID_65_"  style="overflow:visible;"/>
	</clipPath>
	<g class="st35">
		<text transform="matrix(1 0 0 1 314.4697 552.7901)" class="st9 st10 st11">；滚滚的时间</text>
	</g>
</g>
<g>
	<defs>
		<rect id="SVGID_67_" x="0" width="595.32" height="841.92"/>
	</defs>
	<clipPath id="SVGID_68_">
		<use xlink:href="#SVGID_67_"  style="overflow:visible;"/>
	</clipPath>
	<g class="st36">
		<text transform="matrix(1 0 0 1 404.4697 552.7901)" class="st9 st10 st11">模糊</text>
	</g>
</g>
<g>
	<defs>
		<rect id="SVGID_69_" x="0" width="595.32" height="841.92"/>
	</defs>
	<clipPath id="SVGID_70_">
		<use xlink:href="#SVGID_69_"  style="overflow:visible;"/>
	</clipPath>
	<g class="st37">
		<text transform="matrix(1 0 0 1 434.4697 552.7901)" class="st9 st10 st11">记忆</text>
	</g>
</g>
<g>
	<defs>
		<rect id="SVGID_71_" x="0" width="595.32" height="841.92"/>
	</defs>
	<clipPath id="SVGID_72_">
		<use xlink:href="#SVGID_71_"  style="overflow:visible;"/>
	</clipPath>
	<g class="st38">
		<text transform="matrix(1 0 0 1 464.5 552.7901)" class="st9 st10 st11">，</text>
	</g>
</g>
<g>
	<defs>
		<rect id="SVGID_73_" x="0" width="595.32" height="841.92"/>
	</defs>
	<clipPath id="SVGID_74_">
		<use xlink:href="#SVGID_73_"  style="overflow:visible;"/>
	</clipPath>
	<g class="st39">
		<text transform="matrix(1 0 0 1 479.5 552.7901)" class="st9 st10 st11">最清晰</text>
	</g>
</g>
<g>
	<defs>
		<rect id="SVGID_75_" x="0" width="595.32" height="841.92"/>
	</defs>
	<clipPath id="SVGID_76_">
		<use xlink:href="#SVGID_75_"  style="overflow:visible;"/>
	</clipPath>
	<g class="st40">
		<text transform="matrix(1 0 0 1 524.5 552.7901)" class="st9 st10 st11">的</text>
	</g>
</g>
<g>
	<defs>
		<rect id="SVGID_77_" x="0" width="595.32" height="841.92"/>
	</defs>
	<clipPath id="SVGID_78_">
		<use xlink:href="#SVGID_77_"  style="overflow:visible;"/>
	</clipPath>
	<g class="st41">
		<text transform="matrix(1 0 0 1 35.3999 583.9903)" class="st9 st10 st11">是</text>
	</g>
</g>
<g>
	<defs>
		<rect id="SVGID_79_" x="0" width="595.32" height="841.92"/>
	</defs>
	<clipPath id="SVGID_80_">
		<use xlink:href="#SVGID_79_"  style="overflow:visible;"/>
	</clipPath>
	<g class="st42">
		<text transform="matrix(1 0 0 1 50.3999 583.9903)" class="st9 st10 st11">相片</text>
	</g>
</g>
<g>
	<defs>
		<rect id="SVGID_81_" x="0" width="595.32" height="841.92"/>
	</defs>
	<clipPath id="SVGID_82_">
		<use xlink:href="#SVGID_81_"  style="overflow:visible;"/>
	</clipPath>
	<g class="st43">
		<text transform="matrix(1 0 0 1 80.4238 583.9903)" class="st9 st10 st11">。</text>
	</g>
</g>
<g>
	<defs>
		<rect id="SVGID_83_" x="0" width="595.32" height="841.92"/>
	</defs>
	<clipPath id="SVGID_84_">
		<use xlink:href="#SVGID_83_"  style="overflow:visible;"/>
	</clipPath>
</g>
<g>
	<defs>
		<rect id="SVGID_85_" x="0" width="595.32" height="841.92"/>
	</defs>
	<clipPath id="SVGID_86_">
		<use xlink:href="#SVGID_85_"  style="overflow:visible;"/>
	</clipPath>
	<g class="st44">
		<text transform="matrix(1 0 0 1 59.4238 618.2198)" class="st19 st20 st11">欲投稿照片，请联系我们的</text>
	</g>
</g>
<g>
	<defs>
		<rect id="SVGID_87_" x="0" width="595.32" height="841.92"/>
	</defs>
	<clipPath id="SVGID_88_">
		<use xlink:href="#SVGID_87_"  style="overflow:visible;"/>
	</clipPath>
	<path class="st45" d="M253.8,613.6c0,1.45-0.34,2.63-1.02,3.54c-0.68,0.92-1.61,1.48-2.81,1.68c0.17,0.54,0.4,0.93,0.7,1.19
		c0.3,0.26,0.7,0.38,1.2,0.38c0.28,0,0.57-0.03,0.86-0.1v1.2c-0.49,0.13-0.99,0.2-1.49,0.2c-0.75,0-1.37-0.22-1.85-0.65
		s-0.87-1.15-1.17-2.14c-1.37-0.1-2.44-0.62-3.2-1.55c-0.76-0.93-1.15-2.18-1.15-3.76c0-1.66,0.43-2.96,1.3-3.88
		c0.87-0.92,2.09-1.38,3.67-1.38c1.58,0,2.8,0.46,3.66,1.38C253.37,610.64,253.8,611.93,253.8,613.6z M251.98,613.6
		c0-1.24-0.27-2.19-0.81-2.85c-0.54-0.66-1.32-0.99-2.32-0.99c-1.02,0-1.8,0.33-2.35,0.99c-0.54,0.66-0.82,1.61-0.82,2.86
		c0,1.25,0.28,2.22,0.83,2.91c0.55,0.69,1.33,1.03,2.32,1.03c1.03,0,1.81-0.33,2.34-0.99C251.71,615.88,251.98,614.9,251.98,613.6z
		 M265.2,613.6c0,1.45-0.34,2.63-1.02,3.54c-0.68,0.92-1.61,1.48-2.81,1.68c0.17,0.54,0.4,0.93,0.7,1.19c0.3,0.26,0.7,0.38,1.2,0.38
		c0.28,0,0.57-0.03,0.86-0.1v1.2c-0.49,0.13-0.99,0.2-1.49,0.2c-0.75,0-1.37-0.22-1.85-0.65s-0.87-1.15-1.17-2.14
		c-1.37-0.1-2.44-0.62-3.2-1.55c-0.76-0.93-1.15-2.18-1.15-3.76c0-1.66,0.43-2.96,1.3-3.88c0.87-0.92,2.09-1.38,3.67-1.38
		c1.58,0,2.8,0.46,3.66,1.38C264.77,610.64,265.2,611.93,265.2,613.6z M263.38,613.6c0-1.24-0.27-2.19-0.81-2.85
		c-0.54-0.66-1.32-0.99-2.32-0.99c-1.02,0-1.8,0.33-2.35,0.99c-0.54,0.66-0.82,1.61-0.82,2.86c0,1.25,0.28,2.22,0.83,2.91
		c0.55,0.69,1.33,1.03,2.32,1.03c1.03,0,1.81-0.33,2.34-0.99C263.11,615.88,263.38,614.9,263.38,613.6z"/>
</g>
<g>
	<defs>
		<rect id="SVGID_89_" x="0" width="595.32" height="841.92"/>
	</defs>
	<clipPath id="SVGID_90_">
		<use xlink:href="#SVGID_89_"  style="overflow:visible;"/>
	</clipPath>
	<g class="st46">
		<text transform="matrix(1 0 0 1 269.6899 618.2198)" class="st19 st20 st11">账号</text>
	</g>
</g>
<g>
	<defs>
		<rect id="SVGID_91_" x="0" width="595.32" height="841.92"/>
	</defs>
	<clipPath id="SVGID_92_">
		<use xlink:href="#SVGID_91_"  style="overflow:visible;"/>
	</clipPath>
	<g class="st47">
		<text transform="matrix(1 0 0 1 299.6904 618.2198)" class="st19 st20 st11">：</text>
	</g>
</g>
<g>
	<defs>
		<rect id="SVGID_93_" x="0" width="595.32" height="841.92"/>
	</defs>
	<clipPath id="SVGID_94_">
		<use xlink:href="#SVGID_93_"  style="overflow:visible;"/>
	</clipPath>
	<path class="st48" d="M315.76,617.45h2.67v-7.43l-2.42,1.55v-1.4l2.52-1.68h1.57v8.96h2.28v1.35h-6.63V617.45z M330.61,613.46
		c0,1.82-0.32,3.19-0.96,4.11s-1.58,1.38-2.83,1.38c-0.86,0-1.54-0.18-2.04-0.55c-0.5-0.37-0.85-0.93-1.06-1.69l1.59-0.24
		c0.23,0.77,0.75,1.15,1.55,1.15c1.35,0,2.05-1.22,2.09-3.67c-0.2,0.38-0.51,0.67-0.94,0.89c-0.43,0.22-0.9,0.33-1.43,0.33
		c-0.92,0-1.65-0.3-2.18-0.91c-0.54-0.61-0.81-1.45-0.81-2.52c0-1.07,0.3-1.91,0.91-2.51c0.61-0.6,1.46-0.9,2.56-0.9
		c1.18,0,2.07,0.42,2.66,1.26C330.31,610.44,330.61,611.73,330.61,613.46z M328.82,612.05c0-0.71-0.16-1.29-0.48-1.73
		s-0.76-0.66-1.32-0.66c-0.55,0-0.98,0.18-1.28,0.55s-0.45,0.88-0.45,1.54c0,0.67,0.15,1.19,0.46,1.56
		c0.31,0.37,0.73,0.56,1.27,0.56c0.52,0,0.95-0.17,1.29-0.5C328.65,613.05,328.82,612.6,328.82,612.05z M338.96,615.41
		c0,1.1-0.33,1.97-0.98,2.6s-1.55,0.94-2.71,0.94c-0.96,0-1.72-0.22-2.29-0.66c-0.57-0.44-0.93-1.08-1.08-1.94l1.68-0.15
		c0.1,0.38,0.22,0.65,0.36,0.83c0.14,0.18,0.33,0.32,0.56,0.42c0.23,0.1,0.51,0.15,0.84,0.15c0.61,0,1.08-0.19,1.4-0.56
		c0.32-0.37,0.48-0.91,0.48-1.6c0-0.61-0.16-1.09-0.47-1.44c-0.31-0.35-0.75-0.53-1.31-0.53c-0.32,0-0.6,0.05-0.85,0.15
		c-0.25,0.1-0.5,0.28-0.76,0.53h-1.61l0.33-5.67h5.82v1.38h-4.34l-0.18,2.86c0.5-0.41,1.16-0.62,1.97-0.62
		c0.97,0,1.73,0.3,2.29,0.89C338.68,613.58,338.96,614.39,338.96,615.41z M347.35,615.91c0,0.98-0.3,1.73-0.91,2.26
		c-0.61,0.52-1.48,0.78-2.61,0.78c-1.13,0-2.01-0.26-2.62-0.79c-0.61-0.53-0.92-1.27-0.92-2.23c0-0.65,0.19-1.21,0.56-1.66
		c0.37-0.45,0.87-0.74,1.49-0.86v-0.03c-0.54-0.13-0.98-0.42-1.31-0.86c-0.33-0.44-0.5-0.95-0.5-1.53c0-0.82,0.29-1.46,0.87-1.94
		s1.38-0.71,2.41-0.71c1.04,0,1.85,0.23,2.43,0.7c0.58,0.46,0.87,1.12,0.87,1.97c0,0.58-0.17,1.09-0.5,1.53
		c-0.33,0.44-0.77,0.72-1.32,0.83v0.03c0.65,0.12,1.16,0.4,1.52,0.84C347.16,614.67,347.35,615.23,347.35,615.91z M345.61,615.77
		c0-0.57-0.16-1-0.47-1.31c-0.31-0.31-0.76-0.46-1.36-0.46c-0.56,0-1,0.16-1.31,0.49c-0.31,0.32-0.47,0.76-0.47,1.31
		c0,0.64,0.15,1.12,0.47,1.45c0.31,0.33,0.77,0.49,1.37,0.49c0.61,0,1.06-0.16,1.34-0.48S345.61,616.44,345.61,615.77z
		 M345.37,611.14c0-1.06-0.52-1.59-1.57-1.59c-1.04,0-1.56,0.53-1.56,1.59c0,0.53,0.14,0.93,0.41,1.22
		c0.27,0.28,0.66,0.42,1.16,0.42c0.5,0,0.89-0.14,1.16-0.41C345.23,612.09,345.37,611.68,345.37,611.14z M354.42,616.65v2.16h-1.62
		v-2.16h-4.58v-1.38l4.26-6.77h1.95v6.8h1.51v1.36H354.42z M352.81,610.24l-3.11,5.04h3.11V610.24z M363.9,615.91
		c0,0.98-0.3,1.73-0.91,2.26c-0.61,0.52-1.48,0.78-2.61,0.78c-1.13,0-2.01-0.26-2.62-0.79c-0.61-0.53-0.92-1.27-0.92-2.23
		c0-0.65,0.19-1.21,0.56-1.66c0.37-0.45,0.87-0.74,1.49-0.86v-0.03c-0.54-0.13-0.98-0.42-1.31-0.86c-0.33-0.44-0.5-0.95-0.5-1.53
		c0-0.82,0.29-1.46,0.87-1.94s1.38-0.71,2.41-0.71c1.04,0,1.85,0.23,2.43,0.7c0.58,0.46,0.87,1.12,0.87,1.97
		c0,0.58-0.17,1.09-0.5,1.53c-0.33,0.44-0.77,0.72-1.32,0.83v0.03c0.65,0.12,1.16,0.4,1.52,0.84
		C363.72,614.67,363.9,615.23,363.9,615.91z M362.17,615.77c0-0.57-0.16-1-0.47-1.31c-0.31-0.31-0.76-0.46-1.36-0.46
		c-0.56,0-1,0.16-1.31,0.49c-0.31,0.32-0.47,0.76-0.47,1.31c0,0.64,0.15,1.12,0.47,1.45c0.31,0.33,0.77,0.49,1.37,0.49
		c0.61,0,1.06-0.16,1.34-0.48S362.17,616.44,362.17,615.77z M361.93,611.14c0-1.06-0.52-1.59-1.57-1.59c-1.04,0-1.56,0.53-1.56,1.59
		c0,0.53,0.14,0.93,0.41,1.22c0.27,0.28,0.66,0.42,1.16,0.42c0.5,0,0.89-0.14,1.16-0.41C361.79,612.09,361.93,611.68,361.93,611.14z
		 M365.65,617.45h2.67v-7.43l-2.42,1.55v-1.4l2.52-1.68H370v8.96h2.28v1.35h-6.63V617.45z M380.57,615.91c0,0.98-0.3,1.73-0.91,2.26
		c-0.61,0.52-1.48,0.78-2.61,0.78c-1.13,0-2.01-0.26-2.62-0.79c-0.61-0.53-0.92-1.27-0.92-2.23c0-0.65,0.19-1.21,0.56-1.66
		c0.37-0.45,0.87-0.74,1.49-0.86v-0.03c-0.54-0.13-0.98-0.42-1.31-0.86c-0.33-0.44-0.5-0.95-0.5-1.53c0-0.82,0.29-1.46,0.87-1.94
		s1.38-0.71,2.41-0.71c1.04,0,1.85,0.23,2.43,0.7c0.58,0.46,0.87,1.12,0.87,1.97c0,0.58-0.17,1.09-0.5,1.53
		c-0.33,0.44-0.77,0.72-1.32,0.83v0.03c0.65,0.12,1.16,0.4,1.52,0.84C380.39,614.67,380.57,615.23,380.57,615.91z M378.83,615.77
		c0-0.57-0.16-1-0.47-1.31c-0.31-0.31-0.76-0.46-1.36-0.46c-0.56,0-1,0.16-1.31,0.49c-0.31,0.32-0.47,0.76-0.47,1.31
		c0,0.64,0.15,1.12,0.47,1.45c0.31,0.33,0.77,0.49,1.37,0.49c0.61,0,1.06-0.16,1.34-0.48S378.83,616.44,378.83,615.77z
		 M378.59,611.14c0-1.06-0.52-1.59-1.57-1.59c-1.04,0-1.56,0.53-1.56,1.59c0,0.53,0.14,0.93,0.41,1.22
		c0.27,0.28,0.66,0.42,1.16,0.42c0.5,0,0.89-0.14,1.16-0.41C378.46,612.09,378.59,611.68,378.59,611.14z M381.95,618.81v-1.18
		c0.24-0.57,0.59-1.12,1.04-1.67c0.45-0.55,1.05-1.13,1.8-1.76c0.9-0.75,1.5-1.33,1.79-1.74c0.29-0.41,0.44-0.81,0.44-1.19
		c0-0.5-0.14-0.88-0.42-1.15s-0.67-0.41-1.18-0.41c-0.98,0-1.53,0.52-1.67,1.57l-1.7-0.12c0.1-0.89,0.44-1.58,1.02-2.08
		s1.35-0.75,2.31-0.75c1.05,0,1.88,0.25,2.46,0.75c0.59,0.5,0.88,1.21,0.88,2.12c0,0.43-0.08,0.83-0.25,1.2s-0.41,0.74-0.73,1.11
		c-0.32,0.36-0.83,0.83-1.55,1.41c-1.25,0.99-2.03,1.81-2.34,2.47h5.03v1.41H381.95z M397.23,615.91c0,0.98-0.3,1.73-0.91,2.26
		c-0.61,0.52-1.48,0.78-2.61,0.78c-1.13,0-2.01-0.26-2.62-0.79c-0.61-0.53-0.92-1.27-0.92-2.23c0-0.65,0.19-1.21,0.56-1.66
		c0.37-0.45,0.87-0.74,1.49-0.86v-0.03c-0.54-0.13-0.98-0.42-1.31-0.86c-0.33-0.44-0.5-0.95-0.5-1.53c0-0.82,0.29-1.46,0.87-1.94
		s1.38-0.71,2.41-0.71c1.04,0,1.85,0.23,2.43,0.7c0.58,0.46,0.87,1.12,0.87,1.97c0,0.58-0.17,1.09-0.5,1.53
		c-0.33,0.44-0.77,0.72-1.32,0.83v0.03c0.65,0.12,1.16,0.4,1.52,0.84C397.05,614.67,397.23,615.23,397.23,615.91z M395.5,615.77
		c0-0.57-0.16-1-0.47-1.31c-0.31-0.31-0.76-0.46-1.36-0.46c-0.56,0-1,0.16-1.31,0.49c-0.31,0.32-0.47,0.76-0.47,1.31
		c0,0.64,0.15,1.12,0.47,1.45c0.31,0.33,0.77,0.49,1.37,0.49c0.61,0,1.06-0.16,1.34-0.48S395.5,616.44,395.5,615.77z M395.26,611.14
		c0-1.06-0.52-1.59-1.57-1.59c-1.04,0-1.56,0.53-1.56,1.59c0,0.53,0.14,0.93,0.41,1.22c0.27,0.28,0.66,0.42,1.16,0.42
		c0.5,0,0.89-0.14,1.16-0.41C395.12,612.09,395.26,611.68,395.26,611.14z"/>
</g>
<g>
	<defs>
		<rect id="SVGID_95_" x="0" width="595.32" height="841.92"/>
	</defs>
	<clipPath id="SVGID_96_">
		<use xlink:href="#SVGID_95_"  style="overflow:visible;"/>
	</clipPath>
	<g class="st49">
		<text transform="matrix(1 0 0 1 397.8701 618.2198)"><tspan x="0" y="0" class="st19 st20 st11">；</tspan><tspan x="15.11" y="0" class="st19 st20 st11">建议以发送文件或原</tspan></text>
	</g>
</g>
<g>
	<defs>
		<rect id="SVGID_97_" x="0" width="595.32" height="841.92"/>
	</defs>
	<clipPath id="SVGID_98_">
		<use xlink:href="#SVGID_97_"  style="overflow:visible;"/>
	</clipPath>
	<g class="st50">
		<text transform="matrix(1 0 0 1 35.3999 649.42)" class="st19 st20 st11">图的形式发送，以获得更好的画面</text>
	</g>
</g>
<g>
	<defs>
		<rect id="SVGID_99_" x="0" width="595.32" height="841.92"/>
	</defs>
	<clipPath id="SVGID_100_">
		<use xlink:href="#SVGID_99_"  style="overflow:visible;"/>
	</clipPath>
	<g class="st51">
		<text transform="matrix(1 0 0 1 260.4502 649.42)" class="st19 st20 st11">；</text>
	</g>
</g>
<g>
	<defs>
		<rect id="SVGID_101_" x="0" width="595.32" height="841.92"/>
	</defs>
	<clipPath id="SVGID_102_">
		<use xlink:href="#SVGID_101_"  style="overflow:visible;"/>
	</clipPath>
	<g class="st52">
		<text transform="matrix(1 0 0 1 275.4502 649.42)" class="st19 st20 st11">署名情况请说明，字数在</text>
	</g>
</g>
<g>
	<defs>
		<rect id="SVGID_103_" x="0" width="595.32" height="841.92"/>
	</defs>
	<clipPath id="SVGID_104_">
		<use xlink:href="#SVGID_103_"  style="overflow:visible;"/>
	</clipPath>
	<path class="st53" d="M451.91,647.11c0,0.98-0.3,1.73-0.91,2.26c-0.61,0.52-1.48,0.78-2.61,0.78c-1.13,0-2.01-0.26-2.62-0.79
		c-0.61-0.53-0.92-1.27-0.92-2.23c0-0.65,0.19-1.21,0.56-1.66c0.37-0.45,0.87-0.74,1.49-0.86v-0.03c-0.54-0.13-0.98-0.42-1.31-0.86
		c-0.33-0.44-0.5-0.95-0.5-1.53c0-0.82,0.29-1.46,0.87-1.94s1.38-0.71,2.41-0.71c1.04,0,1.85,0.23,2.43,0.7
		c0.58,0.46,0.87,1.12,0.87,1.97c0,0.58-0.17,1.09-0.5,1.53c-0.33,0.44-0.77,0.72-1.32,0.83v0.03c0.65,0.12,1.16,0.4,1.52,0.84
		C451.73,645.87,451.91,646.43,451.91,647.11z M450.17,646.97c0-0.57-0.16-1-0.47-1.31c-0.31-0.31-0.76-0.46-1.36-0.46
		c-0.56,0-1,0.16-1.31,0.49c-0.31,0.32-0.47,0.76-0.47,1.31c0,0.64,0.15,1.12,0.47,1.45c0.31,0.33,0.77,0.49,1.37,0.49
		c0.61,0,1.06-0.16,1.34-0.48S450.17,647.64,450.17,646.97z M449.93,642.34c0-1.06-0.52-1.59-1.57-1.59c-1.04,0-1.56,0.53-1.56,1.59
		c0,0.53,0.14,0.93,0.41,1.22c0.27,0.28,0.66,0.42,1.16,0.42c0.5,0,0.89-0.14,1.16-0.41C449.8,643.29,449.93,642.88,449.93,642.34z"
		/>
</g>
<g>
	<defs>
		<rect id="SVGID_105_" x="0" width="595.32" height="841.92"/>
	</defs>
	<clipPath id="SVGID_106_">
		<use xlink:href="#SVGID_105_"  style="overflow:visible;"/>
	</clipPath>
	<g class="st54">
		<text transform="matrix(1 0 0 1 456.2197 649.42)"><tspan x="0" y="0" class="st19 st20 st11">个汉</tspan><tspan x="30" y="0" class="st19 st20 st11">字</tspan><tspan x="45.11" y="0" class="st19 st20 st11">或</tspan></text>
	</g>
</g>
<g>
	<defs>
		<rect id="SVGID_107_" x="0" width="595.32" height="841.92"/>
	</defs>
	<clipPath id="SVGID_108_">
		<use xlink:href="#SVGID_107_"  style="overflow:visible;"/>
	</clipPath>
	<path class="st55" d="M521.11,648.65h2.67v-7.43l-2.42,1.55v-1.4l2.52-1.68h1.57v8.96h2.28v1.35h-6.63V648.65z M529.05,645.08
		c0-1.83,0.32-3.21,0.95-4.15c0.63-0.93,1.58-1.4,2.84-1.4c0.8,0,1.43,0.17,1.91,0.51s0.83,0.89,1.05,1.66l-1.59,0.26
		c-0.21-0.72-0.68-1.08-1.41-1.08c-1.38,0-2.08,1.23-2.09,3.68c0.24-0.4,0.56-0.7,0.96-0.9c0.4-0.21,0.86-0.31,1.38-0.31
		c0.92,0,1.65,0.29,2.2,0.88c0.55,0.59,0.82,1.39,0.82,2.41c0,1.1-0.3,1.96-0.89,2.59c-0.6,0.62-1.42,0.94-2.48,0.94
		c-1.18,0-2.08-0.42-2.7-1.26C529.36,648.05,529.05,646.78,529.05,645.08z M530.84,646.41c0,0.7,0.16,1.28,0.49,1.73
		c0.33,0.46,0.76,0.68,1.3,0.68c0.55,0,0.97-0.19,1.27-0.57c0.3-0.38,0.45-0.9,0.45-1.57c0-0.66-0.16-1.17-0.47-1.53
		c-0.31-0.36-0.75-0.55-1.31-0.55c-0.51,0-0.93,0.16-1.26,0.49C531.01,645.42,530.84,645.86,530.84,646.41z"/>
</g>
<g>
	<defs>
		<rect id="SVGID_109_" x="0" width="595.32" height="841.92"/>
	</defs>
	<clipPath id="SVGID_110_">
		<use xlink:href="#SVGID_109_"  style="overflow:visible;"/>
	</clipPath>
	<g class="st56">
		<text transform="matrix(1 0 0 1 35.3999 680.6202)" class="st19 st20 st11">个英文字母以上或含特殊符号的，可能无法在摄影展中完全标明。</text>
	</g>
</g>
<g>
	<defs>
		<rect id="SVGID_111_" x="0" width="595.32" height="841.92"/>
	</defs>
	<clipPath id="SVGID_112_">
		<use xlink:href="#SVGID_111_"  style="overflow:visible;"/>
	</clipPath>
</g>
<g>
	<defs>
		<rect id="SVGID_113_" x="0" width="595.32" height="841.92"/>
	</defs>
	<clipPath id="SVGID_114_">
		<use xlink:href="#SVGID_113_"  style="overflow:visible;"/>
	</clipPath>
</g>
<g>
	<defs>
		<rect id="SVGID_115_" x="0" width="595.32" height="841.92"/>
	</defs>
	<clipPath id="SVGID_116_">
		<use xlink:href="#SVGID_115_"  style="overflow:visible;"/>
	</clipPath>
	<g class="st57">
		<text transform="matrix(1 0 0 1 394.0303 749.376)" class="st1 st11">一</text>
	</g>
	<g class="st57">
		<text transform="matrix(1 0 0 1 394.0303 749.376)" class="st58 st1 st11">一</text>
	</g>
	<g class="st57">
		<text transform="matrix(1 0 0 1 409.1348 749.376)" class="st1 st11">五</text>
	</g>
	<g class="st57">
		<text transform="matrix(1 0 0 1 409.1348 749.376)" class="st58 st1 st11">五</text>
	</g>
	<g class="st57">
		<text transform="matrix(1 0 0 1 424.1348 749.376)" class="st1 st11">电</text>
	</g>
	<g class="st57">
		<text transform="matrix(1 0 0 1 424.1348 749.376)" class="st58 st1 st11">电</text>
	</g>
	<g class="st57">
		<text transform="matrix(1 0 0 1 439.2402 749.376)" class="st1 st11">视</text>
	</g>
	<g class="st57">
		<text transform="matrix(1 0 0 1 439.2402 749.376)" class="st58 st1 st11">视</text>
	</g>
	<g class="st57">
		<text transform="matrix(1 0 0 1 454.2402 749.376)" class="st1 st11">台</text>
	</g>
	<g class="st57">
		<text transform="matrix(1 0 0 1 454.2402 749.376)" class="st58 st1 st11">台</text>
	</g>
</g>
<g>
	<defs>
		<rect id="SVGID_117_" x="0" width="595.32" height="841.92"/>
	</defs>
	<clipPath id="SVGID_118_">
		<use xlink:href="#SVGID_117_"  style="overflow:visible;"/>
	</clipPath>
</g>
<g>
	<defs>
		<rect id="SVGID_119_" x="0" width="595.32" height="841.92"/>
	</defs>
	<clipPath id="SVGID_120_">
		<use xlink:href="#SVGID_119_"  style="overflow:visible;"/>
	</clipPath>
	<g class="st59">
		<text transform="matrix(1 0 0 1 473.5 749.376)" class="st1 st11">与</text>
	</g>
	<g class="st59">
		<text transform="matrix(1 0 0 1 473.5 749.376)" class="st58 st1 st11">与</text>
	</g>
</g>
<g>
	<defs>
		<rect id="SVGID_121_" x="0" width="595.32" height="841.92"/>
	</defs>
	<clipPath id="SVGID_122_">
		<use xlink:href="#SVGID_121_"  style="overflow:visible;"/>
	</clipPath>
</g>
<g>
	<defs>
		<rect id="SVGID_123_" x="0" width="595.32" height="841.92"/>
	</defs>
	<clipPath id="SVGID_124_">
		<use xlink:href="#SVGID_123_"  style="overflow:visible;"/>
	</clipPath>
	<g class="st60">
		<text transform="matrix(1 0 0 1 492.7002 749.376)" class="st1 st11">融</text>
	</g>
	<g class="st60">
		<text transform="matrix(1 0 0 1 492.7002 749.376)" class="st58 st1 st11">融</text>
	</g>
	<g class="st60">
		<text transform="matrix(1 0 0 1 507.7002 749.376)" class="st1 st11">媒</text>
	</g>
	<g class="st60">
		<text transform="matrix(1 0 0 1 507.7002 749.376)" class="st58 st1 st11">媒</text>
	</g>
	<g class="st60">
		<text transform="matrix(1 0 0 1 522.8047 749.376)" class="st1 st11">体</text>
	</g>
	<g class="st60">
		<text transform="matrix(1 0 0 1 522.8047 749.376)" class="st58 st1 st11">体</text>
	</g>
	<g class="st60">
		<text transform="matrix(1 0 0 1 537.8047 749.376)" class="st1 st11">部</text>
	</g>
	<g class="st60">
		<text transform="matrix(1 0 0 1 537.8047 749.376)" class="st58 st1 st11">部</text>
	</g>
</g>
<g>
	<defs>
		<rect id="SVGID_125_" x="0" width="595.32" height="841.92"/>
	</defs>
	<clipPath id="SVGID_126_">
		<use xlink:href="#SVGID_125_"  style="overflow:visible;"/>
	</clipPath>
</g>
<g>
	<defs>
		<rect id="SVGID_127_" x="0" width="595.32" height="841.92"/>
	</defs>
	<clipPath id="SVGID_128_">
		<use xlink:href="#SVGID_127_"  style="overflow:visible;"/>
	</clipPath>
	<g class="st61">
		<text transform="matrix(1 0 0 1 372.0703 784.296)" class="st1 st11">二</text>
	</g>
	<g class="st61">
		<text transform="matrix(1 0 0 1 372.0703 784.296)" class="st58 st1 st11">二</text>
	</g>
	<g class="st61">
		<text transform="matrix(1 0 0 1 387.1748 784.296)" class="st1 st11">〇</text>
	</g>
	<g class="st61">
		<text transform="matrix(1 0 0 1 387.1748 784.296)" class="st58 st1 st11">〇</text>
	</g>
	<g class="st61">
		<text transform="matrix(1 0 0 1 402.1748 784.296)" class="st1 st11">二</text>
	</g>
	<g class="st61">
		<text transform="matrix(1 0 0 1 402.1748 784.296)" class="st58 st1 st11">二</text>
	</g>
	<g class="st61">
		<text transform="matrix(1 0 0 1 417.2803 784.296)" class="st1 st11">三</text>
	</g>
	<g class="st61">
		<text transform="matrix(1 0 0 1 417.2803 784.296)" class="st58 st1 st11">三</text>
	</g>
	<g class="st61">
		<text transform="matrix(1 0 0 1 432.2803 784.296)" class="st1 st11">年</text>
	</g>
	<g class="st61">
		<text transform="matrix(1 0 0 1 432.2803 784.296)" class="st58 st1 st11">年</text>
	</g>
	<g class="st61">
		<text transform="matrix(1 0 0 1 447.3848 784.296)" class="st1 st11">十</text>
	</g>
	<g class="st61">
		<text transform="matrix(1 0 0 1 447.3848 784.296)" class="st58 st1 st11">十</text>
	</g>
	<g class="st61">
		<text transform="matrix(1 0 0 1 462.3848 784.296)" class="st1 st11">一</text>
	</g>
	<g class="st61">
		<text transform="matrix(1 0 0 1 462.3848 784.296)" class="st58 st1 st11">一</text>
	</g>
	<g class="st61">
		<text transform="matrix(1 0 0 1 477.4902 784.296)" class="st1 st11">月</text>
	</g>
	<g class="st61">
		<text transform="matrix(1 0 0 1 477.4902 784.296)" class="st58 st1 st11">月</text>
	</g>
	<g class="st61">
		<text transform="matrix(1 0 0 1 492.4902 784.296)" class="st1 st11">二</text>
	</g>
	<g class="st61">
		<text transform="matrix(1 0 0 1 492.4902 784.296)" class="st58 st1 st11">二</text>
	</g>
	<g class="st61">
		<text transform="matrix(1 0 0 1 507.5957 784.296)" class="st1 st11">十</text>
	</g>
	<g class="st61">
		<text transform="matrix(1 0 0 1 507.5957 784.296)" class="st58 st1 st11">十</text>
	</g>
	<g class="st61">
		<text transform="matrix(1 0 0 1 522.5957 784.296)" class="st1 st11">六</text>
	</g>
	<g class="st61">
		<text transform="matrix(1 0 0 1 522.5957 784.296)" class="st58 st1 st11">六</text>
	</g>
	<g class="st61">
		<text transform="matrix(1 0 0 1 537.7002 784.296)" class="st1 st11">日</text>
	</g>
	<g class="st61">
		<text transform="matrix(1 0 0 1 537.7002 784.296)" class="st58 st1 st11">日</text>
	</g>
</g>
<g>
	<defs>
		<rect id="SVGID_129_" x="0" width="595.32" height="841.92"/>
	</defs>
	<clipPath id="SVGID_130_">
		<use xlink:href="#SVGID_129_"  style="overflow:visible;"/>
	</clipPath>
</g>
</svg>
